<svg xmlns="http://www.w3.org/2000/svg" width="257.969" height="57.616" viewBox="0 0 257.969 57.616"><defs><style>.a{fill:#fff;}</style></defs><g transform="translate(0.001)"><path class="a" d="M8.527,8.527h0a29.178,29.178,0,0,0-3.48,4.142l-.007.011q-.381.551-.735,1.117l-.027.045q-.344.552-.663,1.12c-.016.028-.031.057-.047.086-.2.366-.4.736-.588,1.112-.024.047-.045.1-.069.142-.177.36-.349.722-.511,1.09-.03.067-.056.135-.085.2-.151.352-.3.7-.437,1.063-.035.091-.066.184-.1.275-.126.338-.25.677-.363,1.021-.038.117-.071.237-.108.354-.1.323-.2.645-.293.972-.041.148-.074.3-.113.449-.077.3-.156.6-.224.906-.041.183-.073.369-.11.553-.056.276-.115.551-.162.83-.038.223-.066.449-.1.673-.036.245-.077.488-.106.735-.034.288-.056.58-.082.87-.016.188-.039.374-.052.563Q.016,27.581,0,28.314H0A28.82,28.82,0,0,0,1.625,38.37Q2.1,39.715,2.7,41a28.75,28.75,0,0,0,2.863,4.828q.414.564.854,1.107.88,1.086,1.861,2.083a28.833,28.833,0,0,0,28.419,7.5,8.082,8.082,0,0,0,5.358-4.836,8.326,8.326,0,0,0,.514-1.981,8.081,8.081,0,0,0-2.33-6.831q-5.226-5.224-10.449-10.453c-.777-.777-1.5-1.609-2.273-2.388-.668-.67-1.39-1.287-2.065-1.95-1.145-1.125-2.272-2.268-3.408-3.4-.133-.132-.279-.252-.454-.409a6.8,6.8,0,0,0-.572.579c-.276.355-.5.344-.878.08a5.693,5.693,0,0,0-4.156-1.163,3.2,3.2,0,0,0-1.6.586,19.9,19.9,0,0,0-2.5,2.64A24.588,24.588,0,0,0,6.936,38.314c-.035.214-.076.428-.12.672A1.394,1.394,0,0,1,6,37.466c.068-.38.047-.775.085-1.162A33.838,33.838,0,0,1,11.1,21.788c.912-1.487,2-2.868,3.017-4.286.2-.274.3-.46.058-.794a2.843,2.843,0,0,1-.232-.39c-.02-.042-.038-.084-.056-.126a2.763,2.763,0,0,1-.108-.292c-.014-.047-.029-.093-.041-.14a2.83,2.83,0,0,1-.06-.341c0-.029-.01-.057-.013-.086a2.608,2.608,0,0,1,0-.4c0-.057.013-.114.02-.17.011-.083.026-.165.044-.247.014-.061.029-.122.047-.183.025-.082.056-.163.089-.243.021-.052.038-.106.063-.157a2.82,2.82,0,0,1,.548-.777,2.736,2.736,0,0,1,3.555-.318.544.544,0,0,0,.769-.017l.025-.028a35.624,35.624,0,0,1,6.26-4.159,33.6,33.6,0,0,1,13.662-3.97,1.511,1.511,0,0,1,1.541.774c-.059.043-.082.073-.109.078-.287.052-.576.1-.862.15a24.6,24.6,0,0,0-13.171,6.815,3.654,3.654,0,0,0-1.1,2.7,6.208,6.208,0,0,0,1.307,3.77.465.465,0,0,1-.071.631c-.239.206-.452.445-.677.671.108.135.162.216.229.285C27.221,21.965,28.59,23.411,30,24.82c1.232,1.234,2.526,2.4,3.756,3.639q4.8,4.813,9.586,9.631A8.179,8.179,0,0,0,57.2,33.7a28.959,28.959,0,0,0,.415-4.892V0H29.281A29.5,29.5,0,0,0,8.527,8.527Z"/><path class="a" d="M94.46,13.044a18.641,18.641,0,0,0,.863-3.013v6.522h2.939V8.4c.257,1.176.68,2.425.68,2.425l.882-2.535V9.5h2.866a16.625,16.625,0,0,1-3.748,3.693l1.287,3a10.3,10.3,0,0,0,3.122-4.024v4.391h2.94V12.162a13.632,13.632,0,0,0,2.388,4.024l1.36-3.234A17.58,17.58,0,0,1,106.952,9.5h2.683V6.376h-3.344V5.089h2.793V2.04h-2.793V.019h-2.94V2.04h-.588c.129-.772.184-1.323.184-1.323L100.6.2a10.4,10.4,0,0,1-.955,3.674V2.462H98.262V.019H95.323V2.462h-1.58V5.218h1.525a13.592,13.592,0,0,1-1.892,4.464Zm7.513-7.955h1.378V6.376H101.33A6.968,6.968,0,0,0,101.973,5.089Zm-2.7.129,1.451,1.158h-.9v1.1a10.846,10.846,0,0,1-1.415-2.259Z"/><path class="a" d="M120.612,15.139V12.126s-1.231.22-3.05.459V10.343h2.389V7.4h-7.367v2.939h2.407V12.9c-1.011.092-2.094.2-3.142.2l.478,3.05A72.091,72.091,0,0,0,120.612,15.139Z"/><path class="a" d="M122.945,14.808a3.371,3.371,0,0,0,2.536,1.782c.991,0,1.984-.846,2.774-2.775l-1.341-3.233c-.68,1.47-1.084,2.132-1.433,2.132-.239,0-.442-.294-.661-.864a19.111,19.111,0,0,1-1.195-5.806h3.619V4.355l1.084-.864a35.539,35.539,0,0,0-2.443-3.27l-2.168,1.451c.4.423.992,1.066,1.305,1.433h-1.543V0h-2.94V3.105H112V6.044h8.726C120.778,9.315,121.549,12.732,122.945,14.808Z"/><path class="a" d="M133.115,6.284V7.331h10.839V6.155c.552.238,1.065.44,1.488.588l1.212-2.9c-4.261-1.433-6.154-2.9-6.87-3.821h-2.94c-.772,1.1-2.443,2.535-6.724,3.968L131.2,7.018C131.866,6.8,132.508,6.541,133.115,6.284Zm5.346-3.528a10.733,10.733,0,0,0,2.462,1.892h-4.795A14.137,14.137,0,0,0,138.461,2.756Z"/><path class="a" d="M130.616,13.118,131,16.057a74.417,74.417,0,0,0,12.2-.753c.312.422.625.845.936,1.286l2.481-2.039c-1.1-1.36-2.315-2.719-3.068-3.51h2.866V8.378H130.378v2.663h3.876c-.386.57-.9,1.379-1.452,2.077Zm7.294-2.077h3.711l-1.268.864s.349.386.808.919c-1.047.073-2.718.2-4.537.2A18.851,18.851,0,0,0,137.91,11.041Z"/><path class="a" d="M148.484,8.745l.863,3.087a9.1,9.1,0,0,0,1.635-.937v5.677h2.94v-6.3a6.21,6.21,0,0,0,1.929,1.635l1.506-2.572a8.061,8.061,0,0,1-2.811-1.782A12.568,12.568,0,0,0,156.2,4.814V2.186h-2.278V.019h-2.94V2.186h-2V4.942H153A10.022,10.022,0,0,1,148.484,8.745Z"/><path class="a" d="M162.189,7.661h2.59V4.722h-2.59V.019h-2.94v4.7h-2.811V7.661h2.811v5.585H155.7v2.94h9.332v-2.94h-2.847Z"/><path class="a" d="M96.294,23.83,70.741,57.614h10.3L106.591,23.83Z"/><path class="a" d="M102.158,57.614h10.3l1.733-19.306h-10.3Z"/><path class="a" d="M199.34,23.83l-2.217,2.9H185.316l2.218-2.9H175.628L166.386,35.9h11.906l4.314-5.632h11.806l-20.947,27.35h11.9L211.246,23.83Z"/><path class="a" d="M132.314,57.614H143.9L160.837,35.9H149.254Z"/><path class="a" d="M144.442,35.9h-6.187l-9.049,11.6h6.187Z"/><path class="a" d="M128.267,35.9l-9.049,11.6H125.4l9.049-11.6Z"/><path class="a" d="M239.958,23.842,213.614,57.614h18.012l26.343-33.772Z"/><path class="a" d="M226.439,34.738l8.5-10.9h-5.811l-8.5,10.9Z"/><path class="a" d="M225.557,23.842h-5.812l-8.5,10.9h5.811Z"/></g></svg>